<svg id="visual" viewBox="0 0 1200 900" width="1200" height="900" xmlns="http://www.w3.org/2000/svg" xmlns:xlink="http://www.w3.org/1999/xlink" version="1.1"><rect x="0" y="0" width="1200" height="900" fill="#2f2d2d"></rect><defs><linearGradient id="grad1_0" x1="25%" y1="0%" x2="100%" y2="100%"><stop offset="23.333333333333336%" stop-color="#2f2d2d" stop-opacity="1"></stop><stop offset="76.66666666666666%" stop-color="#2f2d2d" stop-opacity="1"></stop></linearGradient></defs><defs><linearGradient id="grad2_0" x1="0%" y1="0%" x2="75%" y2="100%"><stop offset="23.333333333333336%" stop-color="#2f2d2d" stop-opacity="1"></stop><stop offset="76.66666666666666%" stop-color="#2f2d2d" stop-opacity="1"></stop></linearGradient></defs><g transform="translate(1200, 0)"><path d="M0 375C-17.6 318 -35.1 260.9 -57.2 250.6C-79.3 240.2 -105.9 276.4 -143.2 297.3C-180.5 318.2 -228.5 323.8 -233.8 293.2C-239.2 262.6 -201.9 195.8 -207.2 165.2C-212.5 134.7 -260.4 140.4 -261.3 125.8C-262.2 111.2 -216 76.2 -227.2 51.8C-238.3 27.5 -306.6 13.7 -375 0L0 0Z" fill="#FBAE3C"></path></g><g transform="translate(0, 900)"><path d="M0 -375C29.8 -370.8 59.6 -366.7 77.7 -340.2C95.7 -313.8 102 -265.1 115 -238.8C128 -212.4 147.7 -208.5 157.1 -197C166.5 -185.5 165.5 -166.4 207.2 -165.2C248.9 -164 333.2 -180.6 337.9 -162.7C342.5 -144.8 267.4 -92.3 260.3 -59.4C253.2 -26.5 314.1 -13.3 375 0L0 0Z" fill="#FBAE3C"></path></g></svg>